<svg version="1.2" xmlns="http://www.w3.org/2000/svg" viewBox="0 0 64 64" width="300" height="300">
	<title>icons8-subasta-64-svg</title>
	<style>
		.s0 { fill: #000000 } 
	</style>
	<g id="hammer">
		<path id="Layer" fill-rule="evenodd" class="s0" d="m18.5 21c7.7 0 9.4 0.3 9.9 1.6 0.9 2.3-0.2 5.4-2 5.4-0.8 0-1.4 1-1.4 2.5v2.5h18c20.6 0 17.9-0.7 18 1.5 0.1 2.2 2.5 1.5-18 1.5h-18v2.5c0 1.5 0.6 2.5 1.4 2.5 1.7 0 2.9 3.1 2 5.3-0.8 2.1-6 3.1-13 2.5-5.4-0.5-7.3-1.7-7.4-4.6 0-1.7 2.7-1.5 3.4 0.3 0.4 1.1 2.2 1.5 7 1.5 3.6 0 6.8-0.4 7.1-1 0.4-0.6-1.5-1-4.9-1-8.5 0-8.6-0.1-8.6-8.6 0-5.7-0.3-7.4-1.4-7.4-1.7 0-2.8-2.7-2.1-5.1 0.6-1.7 1.7-1.9 10-1.9zm0 3c-4.8 0-7.4 0.4-7 1 0.3 0.5 3.5 1 7 1 3.5 0 6.7-0.5 7-1 0.4-0.6-2.2-1-7-1zm3.5 5h-7v12h7z"/>
	</g>
	<g id="plate">
		<path id="Layer" class="s0" d="m7 58.5c0 1.8-0.5 2.5-2 2.5-2.4 0-2.6 1.5-0.4 2.4 2.6 1 5.4-0.3 5.4-2.5 0-1.5 0.7-1.9 3.5-1.9 1.9 0 3.5 0.4 3.5 1 0 0.5-0.9 1-2 1-2.4 0-2.7 1.5-0.4 2.4 2 0.8 16.8 0.8 18.8 0 2.5-0.9 1.9-2.4-0.9-2.4-2 0-2.5-0.5-2.5-2.5v-2.5h-11.5-11.5z"/>
	</g>
</svg>